<svg width="30" height="30" viewBox="0 0 30 30" fill="none" xmlns="http://www.w3.org/2000/svg">
<path d="M15 15C17.2091 15 19 13.2091 19 11C19 8.79086 17.2091 7 15 7C12.7909 7 11 8.79086 11 11C11 13.2091 12.7909 15 15 15Z" stroke="#001922" stroke-width="2"/>
<path d="M15 28.3333C22.3638 28.3333 28.3334 22.3638 28.3334 15C28.3334 7.63619 22.3638 1.66666 15 1.66666C7.63622 1.66666 1.66669 7.63619 1.66669 15C1.66669 22.3638 7.63622 28.3333 15 28.3333Z" stroke="#001922" stroke-width="2"/>
<path d="M22.96 25.6667C22.7467 21.8107 21.5667 19 15 19C8.43337 19 7.25337 21.8107 7.04004 25.6667" stroke="#001922" stroke-width="2" stroke-linecap="round"/>
</svg>
