<svg xmlns="http://www.w3.org/2000/svg" version="1.1" xmlns:xlink="http://www.w3.org/1999/xlink" xmlns:svgjs="http://svgjs.dev/svgjs" width="2000" height="732" viewBox="0 0 2000 732"><g transform="matrix(1,0,0,1,-1.2121212121212466,1.2556540293389844)"><svg viewBox="0 0 396 145" data-background-color="#ffffff" preserveAspectRatio="xMidYMid meet" height="732" width="2000" xmlns="http://www.w3.org/2000/svg" xmlns:xlink="http://www.w3.org/1999/xlink"><g id="tight-bounds" transform="matrix(1,0,0,1,0.2400000000000091,-0.2487292817679645)"><svg viewBox="0 0 395.52 145.49745856353593" height="145.49745856353593" width="395.52"><g><svg viewBox="0 0 395.52 145.49745856353593" height="145.49745856353593" width="395.52"><g><svg viewBox="0 0 395.52 145.49745856353593" height="145.49745856353593" width="395.52"><g id="textblocktransform"><svg viewBox="0 0 395.52 145.49745856353593" height="145.49745856353593" width="395.52" id="textblock"><g><svg viewBox="0 0 395.52 145.49745856353593" height="145.49745856353593" width="395.52"><g><svg viewBox="0 0 395.52 145.49745856353593" height="145.49745856353593" width="395.52"><g transform="matrix(1,0,0,1,0,0)"><svg width="395.52" viewBox="0.3 -39.15 108.59 39.949999999999996" height="145.49745856353593" data-palette-color="#023e55"><path d="M18.35-26.55L18.35-26.55Q22.25-26.55 24.83-23.38 27.4-20.2 27.4-13.6L27.4-13.6Q27.4-8.4 25.83-5.25 24.25-2.1 21.65-0.7 19.05 0.7 15.95 0.7L15.95 0.7Q13.9 0.7 12.15 0 10.4-0.7 9.15-2.3L9.15-2.3 9.85-2.55Q10.75-1.45 11.98-0.9 13.2-0.35 14.4-0.35L14.4-0.35Q17.15-0.35 18.5-3.45 19.85-6.55 19.85-12.9L19.85-12.9Q19.85-17.2 19.33-19.73 18.8-22.25 17.8-23.33 16.8-24.4 15.4-24.4L15.4-24.4Q13.65-24.4 12.2-22.98 10.75-21.55 10.55-19L10.55-19 10.3-20.75Q11.2-23.6 13.35-25.08 15.5-26.55 18.35-26.55ZM10.7-39.1L10.7-39.1 10.7-1Q9.45-1.2 8.15-1 6.85-0.8 5.75-0.33 4.65 0.15 3.9 0.8L3.9 0.8 3.15 0.35Q3.35-0.35 3.43-1.05 3.5-1.75 3.5-2.45L3.5-2.45 3.5-33.1Q3.5-35.35 2.83-36.43 2.15-37.5 0.3-37.5L0.3-37.5 0.3-38.55Q1.9-38.4 3.4-38.4L3.4-38.4Q5.45-38.4 7.3-38.58 9.15-38.75 10.7-39.1ZM43.4-26.55L43.4-26.55Q47.8-26.55 50.3-23.95 52.8-21.35 52.8-15.45L52.8-15.45 36.35-15.45 36.25-16.4 46.5-16.4Q46.55-18.85 46.2-20.93 45.85-23 45.1-24.25 44.35-25.5 43.1-25.5L43.1-25.5Q41.35-25.5 40.12-23.3 38.9-21.1 38.65-16L38.65-16 38.8-15.7Q38.75-15.1 38.72-14.45 38.7-13.8 38.7-13.1L38.7-13.1Q38.7-9.65 39.67-7.5 40.65-5.35 42.15-4.38 43.65-3.4 45.2-3.4L45.2-3.4Q46.7-3.4 48.47-4.15 50.25-4.9 51.8-7.4L51.8-7.4 52.7-7.1Q52.1-5.2 50.8-3.4 49.5-1.6 47.5-0.45 45.5 0.7 42.7 0.7L42.7 0.7Q39.3 0.7 36.7-0.75 34.1-2.2 32.62-5.15 31.15-8.1 31.15-12.65L31.15-12.65Q31.15-17.3 32.72-20.4 34.3-23.5 37.07-25.03 39.85-26.55 43.4-26.55ZM65.9-39.15L65.9-39.15 65.9-4.65Q65.9-2.55 66.62-1.8 67.34-1.05 69.09-1.05L69.09-1.05 69.09 0Q68.15-0.05 66.25-0.13 64.34-0.2 62.4-0.2L62.4-0.2Q60.45-0.2 58.47-0.13 56.5-0.05 55.5 0L55.5 0 55.5-1.05Q57.25-1.05 57.97-1.8 58.7-2.55 58.7-4.65L58.7-4.65 58.7-33.15Q58.7-35.4 58.02-36.48 57.35-37.55 55.5-37.55L55.5-37.55 55.5-38.6Q57.1-38.45 58.6-38.45L58.6-38.45Q60.65-38.45 62.5-38.63 64.34-38.8 65.9-39.15ZM81.74-39.15L81.74-39.15 81.74-4.65Q81.74-2.55 82.47-1.8 83.19-1.05 84.94-1.05L84.94-1.05 84.94 0Q83.99-0.05 82.09-0.13 80.19-0.2 78.24-0.2L78.24-0.2Q76.29-0.2 74.32-0.13 72.34-0.05 71.34 0L71.34 0 71.34-1.05Q73.09-1.05 73.82-1.8 74.54-2.55 74.54-4.65L74.54-4.65 74.54-33.15Q74.54-35.4 73.87-36.48 73.19-37.55 71.34-37.55L71.34-37.55 71.34-38.6Q72.94-38.45 74.44-38.45L74.44-38.45Q76.49-38.45 78.34-38.63 80.19-38.8 81.74-39.15ZM99.49-26.55L99.49-26.55Q103.89-26.55 106.39-23.95 108.89-21.35 108.89-15.45L108.89-15.45 92.44-15.45 92.34-16.4 102.59-16.4Q102.64-18.85 102.29-20.93 101.94-23 101.19-24.25 100.44-25.5 99.19-25.5L99.19-25.5Q97.44-25.5 96.22-23.3 94.99-21.1 94.74-16L94.74-16 94.89-15.7Q94.84-15.1 94.81-14.45 94.79-13.8 94.79-13.1L94.79-13.1Q94.79-9.65 95.77-7.5 96.74-5.35 98.24-4.38 99.74-3.4 101.29-3.4L101.29-3.4Q102.79-3.4 104.56-4.15 106.34-4.9 107.89-7.4L107.89-7.4 108.79-7.1Q108.19-5.2 106.89-3.4 105.59-1.6 103.59-0.45 101.59 0.7 98.79 0.7L98.79 0.7Q95.39 0.7 92.79-0.75 90.19-2.2 88.72-5.15 87.24-8.1 87.24-12.65L87.24-12.65Q87.24-17.3 88.81-20.4 90.39-23.5 93.17-25.03 95.94-26.55 99.49-26.55Z" opacity="1" transform="matrix(1,0,0,1,0,0)" fill="#023e55" class="wordmark-text-0" data-fill-palette-color="primary" id="text-0"></path></svg></g></svg></g></svg></g></svg></g></svg></g></svg></g><defs></defs></svg><rect width="131.73" height="45" fill="none" stroke="none" visibility="hidden"></rect></g></svg></g></svg>